<svg width="52" height="53" viewBox="0 0 52 53" fill="none" xmlns="http://www.w3.org/2000/svg">
<path fill-rule="evenodd" clip-rule="evenodd" d="M22.108 7.62344C24.4939 6.24596 27.4334 6.24596 29.8192 7.62344L40.0482 13.5291C42.4341 14.9066 43.9038 17.4523 43.9038 20.2072V32.0186C43.9038 34.7736 42.4341 37.3193 40.0482 38.6967L29.8192 44.6024C27.4334 45.9799 24.4939 45.9799 22.108 44.6024L11.879 38.6967C9.49319 37.3193 8.02344 34.7736 8.02344 32.0186V20.2072C8.02344 17.4523 9.49319 14.9066 11.879 13.5291L22.108 7.62344ZM28.6017 9.73231C26.9692 8.78983 24.958 8.78983 23.3256 9.73232L13.0966 15.638C11.4642 16.5805 10.4586 18.3223 10.4586 20.2072V32.0186C10.4586 33.9036 11.4642 35.6454 13.0966 36.5879L23.3256 42.4936C24.958 43.4361 26.9692 43.4361 28.6017 42.4936L38.8306 36.5879C40.4631 35.6454 41.4687 33.9036 41.4687 32.0186V20.2072C41.4687 18.3223 40.4631 16.5805 38.8306 15.638L28.6017 9.73231ZM37.012 20.0775C37.3308 20.6696 37.1094 21.408 36.5174 21.7269L27.2195 26.7345V37.1143C27.2195 37.7867 26.6744 38.3319 26.0019 38.3319C25.3295 38.3319 24.7844 37.7867 24.7844 37.1143V26.7317L15.5628 21.7249C14.9719 21.404 14.7529 20.6649 15.0738 20.0739C15.3946 19.483 16.1338 19.264 16.7248 19.5849L26.0043 24.6232L35.3627 19.5829C35.9547 19.2641 36.6931 19.4855 37.012 20.0775Z" fill="#6100FF"/>
</svg>
