<svg width="53" height="53" viewBox="0 0 53 53" fill="none" xmlns="http://www.w3.org/2000/svg">
<path fill-rule="evenodd" clip-rule="evenodd" d="M19.322 6.97494C19.5084 6.85897 19.7285 6.79199 19.9642 6.79199H32.2834C32.5136 6.79199 32.7289 6.85587 32.9125 6.96687L40.3366 10.1567C42.6719 11.1601 44.3628 13.2499 44.8567 15.7433L44.8588 15.7538L44.9195 16.0752C46.2962 23.3625 46.788 30.7893 46.3842 38.1944L46.2704 40.2806C46.2352 40.9263 45.7013 41.4318 45.0546 41.4318H38.7771V45.9934C38.7771 46.6658 38.2319 47.2109 37.5595 47.2109H14.6881C14.0157 47.2109 13.4706 46.6658 13.4706 45.9934V41.4318H7.19862C6.55194 41.4318 6.01807 40.9263 5.98286 40.2806L5.8691 38.1944C5.46528 30.7893 5.95708 23.3625 7.3338 16.0752L7.39651 15.7433C7.8904 13.2499 9.58132 11.1601 11.9167 10.1567L19.322 6.97494ZM18.9606 9.78059L12.878 12.394C11.2817 13.0799 10.1255 14.5077 9.78626 16.2114L9.72659 16.5273C8.38626 23.6219 7.90747 30.8524 8.30061 38.0618L8.35159 38.9967H13.4706V22.2001C13.4706 21.5276 14.0157 20.9825 14.6881 20.9825C15.3606 20.9825 15.9057 21.5276 15.9057 22.2001V44.7758H36.3419V22.2001C36.3419 21.5276 36.8871 20.9825 37.5595 20.9825C38.2319 20.9825 38.7771 21.5276 38.7771 22.2001V38.9967H43.9017L43.9527 38.0618C44.3458 30.8524 43.867 23.6219 42.5267 16.5273L42.468 16.2165C42.4677 16.2148 42.4673 16.2132 42.467 16.2116C42.1279 14.5077 40.9716 13.0799 39.3753 12.394L33.2876 9.77841C32.4952 12.9985 29.5884 15.3867 26.1238 15.3867C22.66 15.3867 19.7538 12.9995 18.9606 9.78059ZM30.9148 9.22711H21.3329C21.8752 11.3678 23.8145 12.9516 26.1238 12.9516C28.4331 12.9516 30.3724 11.3678 30.9148 9.22711Z" fill="#6100FF"/>
</svg>
