<svg width="53" height="52" viewBox="0 0 53 52" fill="none" xmlns="http://www.w3.org/2000/svg">
<path fill-rule="evenodd" clip-rule="evenodd" d="M5.38672 13.3142C5.38672 8.48146 9.30421 4.56396 14.1369 4.56396H39.25C44.0828 4.56396 48.0002 8.48146 48.0002 13.3142V30.4747C48.0002 30.7977 47.8719 31.1074 47.6436 31.3357L31.9928 46.9843C31.77 47.2306 31.4479 47.3853 31.0897 47.3853C31.0651 47.3853 31.0407 47.3846 31.0164 47.3831H14.1369C9.30421 47.3831 5.38672 43.4656 5.38672 38.6329V13.3142ZM32.3072 43.2264L43.8429 31.6923H37.5833C34.6691 31.6923 32.3072 34.0542 32.3072 36.9684V43.2264ZM45.5651 29.2572H37.5833C33.3242 29.2572 29.8721 32.7093 29.8721 36.9684V44.948H14.1369C10.6491 44.948 7.82184 42.1208 7.82184 38.6329V13.3142C7.82184 9.82634 10.6491 6.99909 14.1369 6.99909H39.25C42.7379 6.99909 45.5651 9.82634 45.5651 13.3142V29.2572ZM32.4663 15.1508C33.1388 15.1508 33.6839 15.6959 33.6839 16.3683V18.074C33.6839 18.7465 33.1388 19.2916 32.4663 19.2916C31.7939 19.2916 31.2488 18.7465 31.2488 18.074V16.3683C31.2488 15.6959 31.7939 15.1508 32.4663 15.1508ZM20.9206 15.3261C21.5931 15.3261 22.1382 15.8712 22.1382 16.5437V18.2493C22.1382 18.9218 21.5931 19.4669 20.9206 19.4669C20.2482 19.4669 19.7031 18.9218 19.7031 18.2493V16.5437C19.7031 15.8712 20.2482 15.3261 20.9206 15.3261ZM19.4284 26.5051C19.9292 26.0564 20.699 26.0986 21.1477 26.5993C22.513 28.123 24.4909 29.0775 26.6935 29.0775C27.3659 29.0775 27.911 29.6226 27.911 30.2951C27.911 30.9675 27.3659 31.5126 26.6935 31.5126C23.7704 31.5126 21.1421 30.242 19.3342 28.2244C18.8854 27.7236 18.9276 26.9539 19.4284 26.5051Z" fill="#6100FF"/>
</svg>
