<svg width="53" height="53" viewBox="0 0 53 53" fill="none" xmlns="http://www.w3.org/2000/svg">
<path fill-rule="evenodd" clip-rule="evenodd" d="M15.8196 7.29352C12.9054 7.29352 10.5435 9.65539 10.5435 12.5696V34.2086C10.5435 37.1229 12.9054 39.4847 15.8196 39.4847H25.4248V7.29352H15.8196ZM15.8196 4.8584C11.5605 4.8584 8.1084 8.31051 8.1084 12.5696V34.2086C8.1084 38.0534 10.9216 41.2406 14.6021 41.8243V46.4752C14.6021 47.1476 15.1472 47.6927 15.8196 47.6927C16.4921 47.6927 17.0372 47.1476 17.0372 46.4752V41.9199H36.9684V46.4752C36.9684 47.1476 37.5135 47.6927 38.1859 47.6927C38.8584 47.6927 39.4035 47.1476 39.4035 46.4752V41.6742C42.7242 40.8146 45.1763 37.7983 45.1763 34.2086V12.5696C45.1763 8.31051 41.7242 4.8584 37.4651 4.8584H15.8196ZM27.8599 7.29352V39.4847H37.4651C40.3793 39.4847 42.7412 37.1229 42.7412 34.2086V12.5696C42.7412 9.65539 40.3793 7.29352 37.4651 7.29352H27.8599ZM20.8695 19.2851C21.542 19.2851 22.0871 19.8303 22.0871 20.5027V26.2756C22.0871 26.948 21.542 27.4931 20.8695 27.4931C20.1971 27.4931 19.652 26.948 19.652 26.2756V20.5027C19.652 19.8303 20.1971 19.2851 20.8695 19.2851ZM32.4152 19.2851C33.0877 19.2851 33.6328 19.8303 33.6328 20.5027V26.2756C33.6328 26.948 33.0877 27.4931 32.4152 27.4931C31.7428 27.4931 31.1977 26.948 31.1977 26.2756V20.5027C31.1977 19.8303 31.7428 19.2851 32.4152 19.2851Z" fill="#6100FF"/>
</svg>
