<svg width="53" height="53" viewBox="0 0 53 53" fill="none" xmlns="http://www.w3.org/2000/svg">
<path fill-rule="evenodd" clip-rule="evenodd" d="M5.31543 22.2771C5.31543 16.3632 10.1079 11.5703 16.02 11.5703C19.3718 11.5703 22.3617 13.1103 24.3239 15.5177C26.286 13.1103 29.2755 11.5703 32.6256 11.5703C38.5398 11.5703 43.3324 16.3654 43.3324 22.2771C43.3324 22.9496 42.7872 23.4947 42.1148 23.4947C41.4423 23.4947 40.8972 22.9496 40.8972 22.2771C40.8972 17.71 37.1946 14.0055 32.6256 14.0055C29.5143 14.0055 26.8017 15.7244 25.3886 18.2711C25.1739 18.658 24.7663 18.898 24.3239 18.898C23.8815 18.898 23.4739 18.658 23.2592 18.2711C21.8462 15.7245 19.1336 14.0055 16.02 14.0055C11.4532 14.0055 7.7506 17.7077 7.7506 22.2771C7.7506 23.9443 8.46109 25.7115 9.72632 27.5199C10.9865 29.3212 12.7347 31.0735 14.6536 32.6847C18.1505 35.6209 22.0866 37.9834 24.3088 39.2249C25.7126 38.3893 28.9883 36.3701 30.569 35.3958C30.7869 35.2615 30.9726 35.147 31.1167 35.0583C31.6893 34.7056 32.4393 34.8839 32.792 35.4565C33.1446 36.0291 32.9663 36.7791 32.3937 37.1318C32.2541 37.2177 32.0701 37.3312 31.8514 37.466C29.9982 38.6085 25.6622 41.2817 24.9061 41.6933C24.543 41.891 24.1043 41.8909 23.7413 41.6931C21.6373 40.5465 17.1075 37.9249 13.0877 34.5496C11.0781 32.8622 9.15752 30.9549 7.731 28.9159C6.30953 26.8842 5.31543 24.6307 5.31543 22.2771ZM33.2211 23.4987C33.6624 23.543 34.0447 23.8237 34.2191 24.2314L37.1791 31.1512L39.8838 27.1213C40.1099 26.7844 40.489 26.5822 40.8948 26.5822H46.3126C46.985 26.5822 47.5301 27.1274 47.5301 27.7998C47.5301 28.4723 46.985 29.0174 46.3126 29.0174H41.544L37.952 34.3692C37.7033 34.7398 37.2718 34.9446 36.8274 34.9029C36.383 34.8613 35.9971 34.5798 35.8216 34.1695L32.8481 27.2182L30.6311 30.4305C30.4038 30.7598 30.0291 30.9564 29.629 30.9564H24.8799C24.2074 30.9564 23.6623 30.4113 23.6623 29.7388C23.6623 29.0664 24.2074 28.5212 24.8799 28.5212H28.9899L32.0976 24.0186C32.3495 23.6537 32.7799 23.4545 33.2211 23.4987Z" fill="#6100FF"/>
</svg>
